<?xml version="1.0" ?><svg id="Layer_1" style="enable-background:new 0 0 256 256;" version="1.1" viewBox="0 0 256 256" xml:space="preserve" xmlns="http://www.w3.org/2000/svg" xmlns:xlink="http://www.w3.org/1999/xlink"><g><path d="M75.4,159.2c-2.7,0-4.9,2.2-4.9,4.9v74.6H33.6v-74.4c0-2.7-2.2-4.9-4.9-4.9s-4.9,2.2-4.9,4.9v79.4c0,2.7,2.2,4.9,4.9,4.9   h46.7c2.7,0,4.9-2.2,4.9-4.9v-79.5C80.3,161.4,78.1,159.2,75.4,159.2z"/><path d="M151.3,140.2c-2.7,0-4.9,2.2-4.9,4.9v93.6h-36.8v-78.9c0-2.7-2.2-4.9-4.9-4.9s-4.9,2.2-4.9,4.9v83.8c0,2.7,2.2,4.9,4.9,4.9   h46.7c2.7,0,4.9-2.2,4.9-4.9v-98.5C156.3,142.4,154.1,140.2,151.3,140.2z"/><path d="M227.4,94.9c-2.7,0-4.9,2.2-4.9,4.9v138.9h-36.9V128.9c0-2.7-2.2-4.9-4.9-4.9c-2.7,0-4.9,2.2-4.9,4.9v114.7   c0,2.7,2.2,4.9,4.9,4.9h46.7c2.7,0,4.9-2.2,4.9-4.9V99.9C232.3,97.1,230.1,94.9,227.4,94.9z"/><path d="M234.9,12c-0.1-1.8-1.2-3.3-2.7-4.1c-1.6-0.8-3.5-0.7-4.9,0.3L173.5,44c-1.5,1-2.3,2.7-2.2,4.4c0.1,1.8,1.2,3.3,2.7,4.1   L198,64.4C172.5,121,89.5,142.9,22.4,134.6c-2.7-0.4-5.2,1.6-5.5,4.3c-0.3,2.7,1.6,5.2,4.3,5.5c9.9,1.2,20,1.8,30.3,1.8   c64.4,0,131.5-24.6,155.4-77.5L232,81.2c0.7,0.3,1.4,0.5,2.2,0.5c1,0,1.9-0.3,2.7-0.8c1.5-1,2.3-2.7,2.2-4.4L234.9,12z M206.3,57.5   C206.2,57.5,206.2,57.4,206.3,57.5c-0.1-0.1-0.1-0.1-0.1-0.1l-20-9.9l39.5-26.3l3.1,47.4L206.3,57.5z"/></g></svg>