<?xml version="1.0" ?><!DOCTYPE svg  PUBLIC '-//W3C//DTD SVG 1.1//EN'  'http://www.w3.org/Graphics/SVG/1.1/DTD/svg11.dtd'><svg enable-background="new 0 0 512 512" height="512px" id="Discussion" version="1.1" viewBox="0 0 512 512" width="512px" xml:space="preserve" xmlns="http://www.w3.org/2000/svg" xmlns:xlink="http://www.w3.org/1999/xlink"><g><path d="M286.551,214.419c-8.438-7.561-19.777-11.16-31.139-9.9c-18.158,2.025-32.895,16.65-35.055,34.785   c-1.801,15.164,5.132,29.789,17.823,38.158c0.088,0.068,0.319,0.137,0.319,0.203v15.277c0,3.396,2.445,5.558,5.863,5.558h31.186   c3.42,0,4.951-2.161,4.951-5.558v-15.277c0-0.045,0.687-0.135,0.798-0.225c11.229-7.402,18.243-19.846,18.243-33.277   C299.541,232.823,295.012,221.978,286.551,214.419z M275.169,267.114c-3.6,2.383-5.669,6.32-5.669,10.551v9.835h-20v-9.835   c0-4.23-1.612-8.168-5.19-10.529c-8.771-5.783-13.167-15.885-11.931-26.369c1.484-12.49,11.764-22.547,24.252-23.941   c7.988-0.898,15.682,1.531,21.598,6.818c5.828,5.221,9.245,12.688,9.245,20.52C287.474,253.411,282.909,262.005,275.169,267.114z"/><circle cx="259.691" cy="245.854" r="12.134"/><path d="M259.5,192.851c3.416,0,6-2.771,6-6.188v-9.18c0-3.418-2.584-6.188-6-6.188s-6,2.77-6,6.188v9.18   C253.5,190.079,256.084,192.851,259.5,192.851z"/><path d="M300.67,192.003l-6.494,6.492c-2.416,2.418-2.416,6.332,0,8.75c1.209,1.207,2.791,1.813,4.375,1.813   s3.166-0.605,4.375-1.813l6.492-6.494c2.418-2.416,2.418-6.332,0-8.748C307.002,189.585,303.086,189.585,300.67,192.003z"/><path d="M225.588,206.866c2.416-2.416,2.416-6.334-0.002-8.752l-6.492-6.49c-2.418-2.412-6.336-2.414-8.752,0.002   c-2.414,2.418-2.414,6.336,0.002,8.752l6.492,6.49c1.209,1.207,2.791,1.811,4.375,1.811S224.381,208.075,225.588,206.866z"/><path d="M316.063,12.5H51.014C39.674,12.5,28.5,23.122,28.5,34.485v262.752c0,11.363,11.174,19.263,22.514,19.263H97.77l-3.4,9.641   l-7.49,20.234c-1.643,4.385,3.24,8.482,7.178,5.939l39.666-26.255l13.883-9.56H177.5V177.675c0-11.342,10.357-21.175,21.699-21.175   H337.5V34.485C337.5,23.122,327.381,12.5,316.063,12.5z M157.5,83.901c0,3.078-2.369,5.599-5.449,5.599H61.953   c-3.08,0-6.453-2.521-6.453-5.599V83.8c0-3.078,3.373-6.3,6.453-6.3h90.098c3.08,0,5.449,3.222,5.449,6.3V83.901z M238.5,43.401   c0,3.078-2.369,5.099-5.449,5.099H61.953c-3.08,0-6.453-2.021-6.453-5.099V43.3c0-3.078,3.373-5.8,6.453-5.8h171.098   c3.08,0,5.449,2.722,5.449,5.8V43.401z"/><path d="M464.225,156.5H337.5v140.737c0,11.363-10.119,19.263-21.438,19.263H177.5v126.224c0,11.318,10.357,19.776,21.699,19.776   h174.105l13.904,9.361l39.666,25.875c3.938,2.543,8.82-1.305,7.18-5.693l-7.494-20.228l-3.398-9.315h41.063   c11.363,0,19.275-8.458,19.275-19.776V177.675C483.5,166.333,475.588,156.5,464.225,156.5z M460.5,428.151   c0,3.078-1.619,5.349-4.699,5.349H284.703c-3.08,0-6.203-2.271-6.203-5.349v-0.102c0-3.078,3.123-5.55,6.203-5.55h171.098   c3.08,0,4.699,2.472,4.699,5.55V428.151z M460.5,387.651c0,3.078-1.619,4.849-4.699,4.849h-90.098c-3.08,0-6.203-1.771-6.203-4.849   v-0.102c0-3.078,3.123-6.05,6.203-6.05h90.098c3.08,0,4.699,2.972,4.699,6.05V387.651z"/></g></svg>