<?xml version="1.0" ?><!DOCTYPE svg  PUBLIC '-//W3C//DTD SVG 1.1//EN'  'http://www.w3.org/Graphics/SVG/1.1/DTD/svg11.dtd'><svg height="512px" style="enable-background:new 0 0 512 512;" version="1.1" viewBox="0 0 512 512" width="512px" xml:space="preserve" xmlns="http://www.w3.org/2000/svg" xmlns:xlink="http://www.w3.org/1999/xlink"><g id="_x34_11_x2C_chat_x2C_conference_x2C_video_x2C_online"><g><path d="M315.235,306.17c0-32.662-26.573-59.236-59.235-59.236c-32.663,0-59.235,26.574-59.235,59.236    s26.573,59.236,59.235,59.236C288.662,365.406,315.235,338.832,315.235,306.17z"/><path d="M257.422,397.887c-54.31,0-109.273,30.422-111.682,88.627h220.527C363.952,425.654,308.77,397.887,257.422,397.887z"/><path d="M256.841,138.688c-30.924,0-62.214,16.934-64.593,49.357h127.516C317.475,154.168,286.084,138.688,256.841,138.688z"/><path d="M256,116.143c18.495,0,33.542-15.047,33.542-33.543c0-18.494-15.047-33.541-33.542-33.541    c-18.496,0-33.542,15.047-33.542,33.541C222.458,101.096,237.504,116.143,256,116.143z"/><path d="M83.343,188.139h100.882c2.288-37.734,37.658-57.451,72.616-57.451c33.147,0,68.743,18.014,70.948,57.451h100.318    l0.537-163.309H83.343V188.139z M256,41.059c22.906,0,41.542,18.635,41.542,41.541S278.906,124.143,256,124.143    c-22.907,0-41.542-18.637-41.542-41.543S233.093,41.059,256,41.059z"/></g></g><g id="Layer_1"/></svg>